<svg width="42" height="56" viewBox="0 0 42 56" fill="none" xmlns="http://www.w3.org/2000/svg">
<path d="M17.3905 7.67691C18.7134 7.76495 19.7818 8.52527 20.4917 9.39517C21.1929 10.2546 21.6582 11.3579 21.6582 12.3483V21.5345C22.4632 21.1769 23.3734 21.0704 24.1127 21.1073C25.4114 21.1722 26.479 21.7898 27.211 22.5735C27.4395 22.8182 27.6434 23.0875 27.8145 23.3717C27.9151 23.3113 28.0177 23.2547 28.1209 23.2022C28.901 22.8055 29.8927 22.5454 30.8028 22.5454C32.4131 22.5454 33.5208 23.4403 34.1851 24.4117C34.401 24.7275 34.576 25.0643 34.7171 25.3992C34.8054 25.3588 34.8947 25.3215 34.9841 25.2868C35.7736 24.9803 36.7925 24.8085 37.697 24.957C38.7518 25.1302 39.6533 25.7856 40.2642 26.4345C40.578 26.7677 40.845 27.1297 41.0388 27.4828C41.218 27.8094 41.3912 28.23 41.3913 28.6577V40.8101C41.3913 42.7463 40.9394 44.6566 40.0706 46.3884L35.7803 54.9394C35.4542 55.5895 34.7874 56 34.0581 56H18.2065C17.6959 56 17.2063 55.7977 16.8453 55.4379L10.2378 48.8534C8.61317 47.2341 7.70071 45.0376 7.70071 42.7476V31.9631L7.70635 31.9097C7.81787 30.9095 8.12643 30.095 8.60689 29.4625C9.08957 28.8272 9.70671 28.4275 10.3478 28.1986C11.076 27.9388 11.8377 27.8964 12.5137 27.9625V12.3483C12.5137 11.1658 13.0865 9.97366 13.9256 9.10754C14.7725 8.23349 15.9973 7.58427 17.3905 7.67691ZM17.2627 9.59192C16.5681 9.54569 15.8674 9.86672 15.3112 10.4407C14.7474 11.0226 14.4389 11.7565 14.4388 12.3483V38.7312C14.4388 39.261 14.0079 39.6906 13.4762 39.6906C12.9446 39.6906 12.5137 39.261 12.5137 38.7312V29.8963C12.0222 29.8254 11.4718 29.8357 10.9974 30.005C10.6641 30.1239 10.3721 30.3176 10.142 30.6205C9.91421 30.9203 9.71018 31.377 9.62588 32.0792V42.7476C9.62588 44.5287 10.3354 46.2373 11.599 47.4968L18.2065 54.0812H34.0581L38.3484 45.5302C39.0836 44.0649 39.4661 42.4485 39.4661 40.8101V28.6577C39.4661 28.7063 39.4709 28.625 39.3496 28.4038C39.2426 28.2088 39.0764 27.9761 38.8608 27.747C38.413 27.2716 37.8701 26.9293 37.3849 26.8495C36.8952 26.7691 36.2288 26.8623 35.6825 27.0743C35.4164 27.1777 35.2335 27.289 35.1345 27.3732V33.9343C35.1345 34.4641 34.7035 34.8937 34.1719 34.8937C33.6735 34.8937 33.2633 34.5164 33.214 34.0327L33.2093 33.9343V27.2186C33.2092 26.8775 33.0344 26.1353 32.5945 25.4919C32.1759 24.8797 31.599 24.4642 30.8028 24.4642C30.221 24.4642 29.5275 24.6408 28.9961 24.9111C28.7322 25.0453 28.5522 25.1802 28.4518 25.2868L28.3964 25.3589V33.4546C28.3964 33.9844 27.9654 34.414 27.4338 34.414C26.9354 34.414 26.5252 34.0367 26.4759 33.553L26.4712 33.4546V25.2999C26.4711 24.9378 26.266 24.3784 25.8019 23.8814C25.3543 23.4022 24.7373 23.0602 24.0168 23.0242C23.4408 22.9954 22.7827 23.1008 22.3087 23.3511C21.8776 23.5789 21.6583 23.8782 21.6582 24.3405V33.9343C21.6582 34.4641 21.2273 34.8937 20.6957 34.8937C20.164 34.8937 19.7331 34.4641 19.7331 33.9343V12.3483C19.733 11.9002 19.4917 11.2118 18.998 10.6066C18.5128 10.0119 17.897 9.63421 17.2627 9.59192ZM17.3266 0C19.602 1.04561e-07 21.8554 0.42934 23.9575 1.262C26.0595 2.09464 27.9692 3.31473 29.578 4.85311C31.1868 6.39155 32.4636 8.21802 33.3343 10.2281C34.205 12.2382 34.6532 14.3933 34.6532 16.569V17.2688H33.1886V16.569C33.1886 14.5771 32.7787 12.6042 31.9816 10.764C31.1845 8.92383 30.0158 7.25183 28.543 5.8434C27.0702 4.43497 25.3216 3.3172 23.3973 2.55491C21.4728 1.79262 19.4097 1.39972 17.3266 1.39972C15.2435 1.39972 13.1804 1.79262 11.2559 2.55491C9.33154 3.3172 7.58303 4.43497 6.11018 5.8434C4.6374 7.25183 3.46867 8.92383 2.67156 10.764C1.87448 12.6042 1.46456 14.5771 1.46456 16.569V17.2688H0V16.569C0 14.3933 0.448219 12.2382 1.31886 10.2281C2.1896 8.21802 3.4664 6.39155 5.07521 4.85311C6.68397 3.31473 8.59373 2.09464 10.6956 1.262C12.7978 0.42934 15.0512 0 17.3266 0ZM17.3266 3.83752C19.0962 3.83752 20.8487 4.17141 22.4836 4.82032C24.1184 5.4693 25.6044 6.42068 26.8557 7.61975C28.107 8.819 29.1 10.2436 29.7773 11.8105C30.4544 13.3772 30.8028 15.0568 30.8028 16.7526V17.2688H29.7246V16.7526C29.7246 15.1925 29.4046 13.6472 28.7818 12.2058C28.1587 10.7643 27.2446 9.45383 26.0933 8.35053C24.9421 7.24738 23.5749 6.37208 22.0709 5.77501C20.5669 5.17806 18.9545 4.87091 17.3266 4.87091C15.6987 4.87091 14.0863 5.17806 12.5823 5.77501C11.0783 6.37208 9.71105 7.24738 8.55989 8.35053C7.40862 9.45383 6.49448 10.7643 5.87141 12.2058C5.24854 13.6472 4.92857 15.1925 4.92857 16.7526V17.2688H3.85035V16.7526C3.85035 15.0568 4.19882 13.3772 4.87592 11.8105C5.55317 10.2436 6.54615 8.819 7.79753 7.61975C9.04881 6.42068 10.5348 5.4693 12.1696 4.82032C13.8045 4.17141 15.557 3.83752 17.3266 3.83752Z" fill="#F0FFF7"/>
</svg>
